<?xml version="1.0" encoding="UTF-8" standalone="no"?>
<!DOCTYPE svg PUBLIC "-//W3C//DTD SVG 1.1//EN" "http://www.w3.org/Graphics/SVG/1.1/DTD/svg11.dtd">
<svg width="100%" height="100%" viewBox="0 0 512 512" version="1.1" xmlns="http://www.w3.org/2000/svg" xmlns:xlink="http://www.w3.org/1999/xlink" xml:space="preserve" xmlns:serif="http://www.serif.com/" style="fill-rule:evenodd;clip-rule:evenodd;stroke-miterlimit:10;">
    <g transform="matrix(2.57801,0,0,2.57801,-68.0147,-453.02)">
        <g transform="matrix(54.1785,0,0,54.1785,182.463,369.702)">
        </g>
        <text x="69.447px" y="369.702px" style="font-family:'Sanchez-Regular', 'Sanchez ';font-size:54.178px;">64<tspan x="136.141px " y="369.702px ">°</tspan>F</text>
    </g>
    <g transform="matrix(7.24492,0,0,7.24492,24.1626,-52.5182)">
        <circle cx="32" cy="32" r="10.5" style="fill:url(#_Linear1);stroke:rgb(248,175,24);stroke-width:0.5px;"/>
    </g>
    <g transform="matrix(7.24492,0,0,7.24492,24.1626,-52.5182)">
        <path d="M32,15.71L32,9.5M32,54.5L32,48.29M43.52,20.48L47.91,16.09M16.09,47.91L20.48,43.52M20.48,20.52L16.09,16.13M47.91,47.91L43.52,43.52M15.71,32L9.5,32M54.5,32L48.29,32" style="fill:none;fill-rule:nonzero;stroke:rgb(251,191,36);stroke-width:3px;stroke-linecap:round;"/>
    </g>
    <defs>
        <linearGradient id="_Linear1" x1="0" y1="0" x2="1" y2="0" gradientUnits="userSpaceOnUse" gradientTransform="matrix(10.5,18.18,-18.18,10.5,26.75,22.91)"><stop offset="0" style="stop-color:rgb(251,191,36);stop-opacity:1"/><stop offset="0.45" style="stop-color:rgb(251,191,36);stop-opacity:1"/><stop offset="1" style="stop-color:rgb(245,158,11);stop-opacity:1"/></linearGradient>
    </defs>
</svg>
